# xmcd
#
# Track frame offsets:
#	150
#	19797
#	40175
#	58448
#	77972
#	98086
#	117305
#	138847
#	160612
#	180028
#	200612
#	217787
#
# Disc length: 3119 seconds
#
# Revision: 1
# Processed by: cddbd v1.5.2PL0 Copyright (c) Steve Scherf et al.
# Submitted via: audiograbber 1.83.01
#
DISCID=970c2d0c
DTITLE=Gavin Chatelier - The Simple Life
DYEAR=1900
DGENRE=Christian Rock
TTITLE0=The Shimple Life
TTITLE1=Faithful Friend
TTITLE2=Rainbow Promise
TTITLE3=Forever His Child
TTITLE4=His Love Shining Through
TTITLE5=My Son
TTITLE6=Holding On
TTITLE7=He Gives You Love
TTITLE8=More Than A Brother
TTITLE9=I Surrender
TTITLE10=Trusting In Jesus
TTITLE11=Walk The Way
EXTD=
EXTT0=
EXTT1=
EXTT2=
EXTT3=
EXTT4=
EXTT5=
EXTT6=
EXTT7=
EXTT8=
EXTT9=
EXTT10=
EXTT11=
PLAYORDER=
